<?xml version="1.0" encoding="UTF-8" standalone="no"?>
<!DOCTYPE svg PUBLIC "-//W3C//DTD SVG 1.1//EN" "http://www.w3.org/Graphics/SVG/1.1/DTD/svg11.dtd">
<svg width="100%" height="100%" viewBox="0 0 72 72" version="1.1" xmlns="http://www.w3.org/2000/svg" xmlns:xlink="http://www.w3.org/1999/xlink" xml:space="preserve" xmlns:serif="http://www.serif.com/" style="fill-rule:evenodd;clip-rule:evenodd;stroke-linejoin:round;stroke-miterlimit:1.41421;">
    <g>
        <g transform="matrix(1.07643,0,0,1.05972,-2.75139,-2.17981)">
            <path d="M67,36.489C67,19.11 53.109,5 36,5C18.891,5 5,19.11 5,36.489L5,36.511C5,53.89 18.891,68 36,68C53.109,68 67,53.89 67,36.511L67,36.489Z" style="fill:rgb(0,188,212);"/>
        </g>
        <g transform="matrix(0.0589668,0,0,0.0589668,5.80901,5.80901)">
            <path d="M524.28,684.243L524.685,684.258L536.003,685.066L536.715,685.127L541.616,685.712L548.757,686.588L553.804,687.435L560.502,688.589L565.656,689.706L572.054,691.13L577.245,692.512L583.397,694.197L588.592,695.842L594.517,697.773L599.698,699.685L604.24,701.408C599.443,770.769 566.321,832.368 516.397,874.679C465.749,831.781 432.421,769.099 428.335,698.545L428.836,698.357L434.301,696.527L439.563,694.824L444.703,693.343L450.499,691.768L455.496,690.557L461.645,689.198L466.546,688.231L473.021,687.123L477.799,686.393L484.697,685.553L489.222,685.06L496.961,684.497L501.053,684.229L502.327,684.183L512.501,683.963L524.28,684.243Z" style="fill:white;"/>
        </g>
        <g transform="matrix(0.0589668,0,0,0.0589668,5.80901,5.80901)">
            <path d="M814.785,683.963C719.257,653.607 617.526,637.226 512,637.226C406.474,637.226 304.743,653.607 209.215,683.963L512,149.321L814.785,683.963ZM673.685,582.559C621.05,573.675 567.041,569.056 512,569.056C456.959,569.056 402.949,573.675 350.315,582.559L512,286.636L673.685,582.559Z" style="fill:white;"/>
        </g>
    </g>
</svg>
